<?xml version="1.0" standalone="no"?>
<!DOCTYPE svg PUBLIC "-//W3C//DTD SVG 20010904//EN"
 "http://www.w3.org/TR/2001/REC-SVG-20010904/DTD/svg10.dtd">
<svg version="1.0" xmlns="http://www.w3.org/2000/svg"
 width="156.000000pt" height="156.000000pt" viewBox="0 0 156.000000 156.000000"
 preserveAspectRatio="xMidYMid meet">
<metadata>
Created by potrace 1.11, written by Peter Selinger 2001-2013
</metadata>
<g transform="translate(0.000000,156.000000) scale(0.100000,-0.100000)"
fill="#000000" stroke="none">
<path d="M807 1339 c-4 -15 0 -17 28 -12 24 4 42 0 63 -16 33 -23 52 -27 52
-10 0 13 41 2 55 -15 15 -17 65 -48 65 -40 0 4 9 -1 20 -11 11 -10 20 -13 20
-7 0 6 -12 19 -27 28 -16 10 -39 30 -53 46 -24 27 -28 28 -66 20 -36 -8 -43
-6 -62 13 -27 28 -88 30 -95 4z"/>
<path d="M837 1233 c9 -3 10 -10 3 -23 -10 -18 -41 -18 -67 2 -7 5 -12 5 -15
-2 -2 -7 -31 -12 -73 -12 -39 0 -74 -3 -80 -6 -5 -4 -22 -5 -37 -3 -26 2 -27
1 -21 -33 5 -33 3 -36 -18 -37 -61 -1 -147 -9 -176 -16 l-31 -8 24 -52 c19
-39 23 -61 19 -87 -7 -35 -24 -46 -73 -46 -22 0 -22 0 -5 -27 10 -16 21 -31
26 -34 5 -4 12 -34 16 -68 8 -65 -4 -91 -42 -91 -25 0 -28 -16 -7 -40 22 -25
44 -92 42 -125 -2 -39 -21 -98 -34 -107 -8 -6 -4 -7 12 -2 14 4 27 11 28 15 2
5 8 9 14 9 5 0 16 7 24 15 9 8 27 15 41 15 21 0 24 -3 19 -23 -3 -12 -6 -25
-6 -29 0 -3 -19 -16 -43 -27 -38 -18 -44 -26 -60 -79 -22 -74 -22 -71 11 -68
15 1 35 -1 45 -6 24 -12 21 -38 -5 -38 -12 0 -18 -3 -15 -6 11 -11 101 -12
119 -1 11 8 20 8 30 -1 15 -12 165 -9 213 5 17 5 48 8 70 6 46 -3 78 15 100
57 20 39 45 39 46 0 1 -16 2 -36 3 -42 1 -14 39 -20 69 -11 14 4 16 8 6 19 -6
8 -8 14 -3 14 5 1 -1 9 -14 20 -20 16 -21 20 -7 33 8 9 15 18 15 22 0 7 12 22
78 92 28 32 52 62 52 69 0 6 37 31 83 54 45 23 87 46 93 51 6 5 14 6 17 2 4
-3 8 -1 8 5 1 7 3 17 4 22 1 6 3 17 4 25 1 10 12 15 37 15 26 0 33 3 27 13 -4
6 -9 23 -11 36 -4 30 -71 153 -89 164 -7 4 -13 15 -13 22 0 8 -4 15 -10 15 -5
0 -10 4 -10 9 0 11 -74 84 -141 141 -23 19 -58 51 -78 71 -21 20 -61 47 -89
59 -29 12 -52 26 -52 29 0 8 -61 32 -76 30 -5 0 -3 -3 3 -6z m253 -384 c0 -4
5 -20 11 -36 7 -15 13 -35 14 -43 2 -8 11 -53 20 -100 20 -98 23 -146 8 -161
-5 -5 -38 -10 -74 -11 -55 -2 -64 1 -68 17 -2 10 3 23 11 29 21 15 55 85 61
125 8 46 -9 78 -44 85 -36 7 -36 20 -2 85 25 49 27 51 45 35 10 -10 18 -21 18
-25z"/>
<path d="M226 249 c6 -10 64 -8 64 2 0 4 -16 7 -35 7 -19 0 -32 -4 -29 -9z"/>
</g>
</svg>
